pedal_clip_forces.mot
version=1
nRows=201
nColumns=4
inDegrees=yes
endheader
time	PedalClip_calcn_r_Fx	PedalClip_calcn_r_Fy	PedalClip_calcn_r_Fz
0.53123674	-51.1029082782784	-129.578309532842	-0
0.53169043	-51.136265191943	-129.415010040222	-0
0.53214412	-51.1686844801685	-129.251464436131	-0
0.5325978	-51.2001622389369	-129.087665120365	-0
0.53304006	-51.230694424146	-128.923603609715	-0
0.53350594	-51.2602768526954	-128.759270541912	-0
0.53397181	-51.2889052026858	-128.594655685374	-0
0.53443769	-51.3165750125552	-128.429747954005	-0
0.53490356	-51.3432816790025	-128.264535426362	-0
0.53536943	-51.3690204536131	-128.099005368512	-0
0.53583531	-51.3937864381746	-127.933144259897	-0
0.53630118	-51.4175745787837	-127.766937821526	-0
0.53676705	-51.4403796589811	-127.600371045842	-0
0.53723293	-51.4621962922709	-127.433428227721	-0
0.5376988	-51.4830189145409	-127.26609299619	-0
0.53816467	-51.5028417769903	-127.098348346637	-0
0.53863055	-51.5216589402835	-126.930176673514	-0
0.53909642	-51.5394642706653	-126.761559803754	-0
0.5395402	-51.5562514387533	-126.592479031312	-0
0.54011085	-51.5720139216098	-126.42291515341	-0
0.54055872	-51.5867450085357	-126.25284850914	-0
0.5411542	-51.6004378108046	-126.082259021107	-0
0.5416054	-51.6130852752984	-125.911126240709	-0
0.54212542	-51.6246802017735	-125.73942939751	-0
0.54264545	-51.635215263258	-125.567147452918	-0
0.5430151	-51.6446830289046	-125.394259158175	-0
0.54347289	-51.6530759885172	-125.220743116428	-0
0.54393067	-51.66038657791	-125.046577848655	-0
0.5441356	-51.6666072042662	-124.87174186298	-0
0.54454801	-51.6717302707158	-124.696213726448	-0
0.5450227	-51.6757481994307	-124.519972137575	-0
0.54549739	-51.6786534526322	-124.34299599747	-0
0.54580985	-51.680438551018	-124.165264476974	-0
0.54655926	-51.6810960891956	-123.986757077328	-0
0.54699098	-51.6806187478202	-123.807453682135	-0
0.5474227	-51.6789993022184	-123.627334598903	-0
0.54758195	-51.6762306274808	-123.446380589047	-0
0.54797463	-51.6723057004458	-123.264572885851	-0
0.5484467	-51.6672175994786	-123.081893200514	-0
0.54891878	-51.6609595027543	-122.898323716861	-0
0.54907605	-51.6535246850244	-122.71384707573	-0
0.5494818	-51.644906512002	-122.528446350331	-0
0.54996377	-51.6350984307571	-122.342105013994	-0
0.55044575	-51.624093954064	-122.154806901825	-0
0.55080085	-51.6118866364466	-121.966536167732	-0
0.55136842	-51.5984700400111	-121.777277238186	-0
0.55193599	-51.5838376878567	-121.587014763955	-0
0.55231873	-51.5679829992012	-121.395733570848	-0
0.55279541	-51.5508991940806	-121.203418610305	-0
0.55327209	-51.5325791499232	-121.010054910525	-0
0.55362179	-51.5130151905726	-120.81562752856	-0
0.55428646	-51.4921987904065	-120.620121503681	-0
0.55495114	-51.4701201791949	-120.423521812171	-0
0.55536258	-51.4467678383075	-120.225813323511	-0
0.55583043	-51.4221278960037	-120.026980757886	-0
0.55629827	-51.3961834672304	-119.827008644803	-0
0.55665057	-51.368914031186	-119.625881282551	-0
0.55745731	-51.3402949706578	-119.4235826982	-0
0.55826404	-51.3102973895024	-119.220096607765	-0
0.55875282	-51.2788882797124	-119.015406376166	-0
0.55931113	-51.2460310475572	-118.809494976558	-0
0.55973984	-51.2116863534588	-118.60234494858	-0
0.56016856	-51.1758131886597	-118.393938355059	-0
0.56059891	-51.138370108236	-118.18425673661	-0
0.56118471	-51.0993165557468	-117.973281063522	-0
0.56177051	-51.0586141376355	-117.76099168421	-0
0.56197859	-51.0162274781512	-117.547368269335	-0
0.56278516	-50.972124566095	-117.332389750523	-0
0.56320499	-50.9262767295548	-117.116034252343	-0
0.56370601	-50.8786583797328	-116.898279015893	-0
0.56420703	-50.8292466292312	-116.679100311989	-0
0.56459591	-50.7780208587635	-116.45847335814	-0
0.56519355	-50.7249622808445	-116.23637242271	-0
0.56579119	-50.6700535297247	-116.012771773235	-0
0.56617346	-50.6132782930433	-115.787647955353	-0
0.56671269	-50.5546209913566	-115.56098178053	-0
0.56725193	-50.4940665057854	-115.332757728146	-0
0.56763845	-50.4315999505805	-115.102962488049	-0
0.56823237	-50.3672064856496	-114.871585646251	-0
0.56882629	-50.3008711634198	-114.638620849717	-0
0.56921385	-50.2325788044247	-114.404060982932	-0
0.56977476	-50.1623138963881	-114.167884748242	-0
0.57033566	-50.0900605121561	-113.93004518578	-0
0.57072413	-50.0158022424571	-113.690472659896	-0
0.5713298	-49.9395221401098	-113.449084838942	-0
0.57193548	-49.8612026728775	-113.205795150106	-0
0.57233366	-49.780825682695	-112.960518562519	-0
0.57290666	-49.6983723494443	-112.713175169896	-0
0.57347966	-49.6138231578474	-112.463692070559	-0
0.57387078	-49.5271578663655	-112.212004014522	-0
0.57450263	-49.4383554772717	-111.95805322193	-0
0.57513447	-49.3473942072764	-111.701788694848	-0
0.575545	-49.2542514582768	-111.443165261974	-0
0.57612792	-49.1589037879317	-111.18214252305	-0
0.57671085	-49.0613268798857	-110.918683801166	-0
0.57710493	-48.9614955135404	-110.652755167026	-0
0.57777248	-48.8593835333364	-110.38432456818	-0
0.57844003	-48.7549638175611	-110.113361075481	-0
0.57886161	-48.6482082467205	-109.839834246114	-0
0.57946496	-48.539087671549	-109.563713595174	-0
0.5800683	-48.4275718807513	-109.284968164093	-0
0.58046729	-48.3136295685894	-109.003566172918	-0
0.58115874	-48.1972283024536	-108.71947474359	-0
0.58185019	-48.0783344905818	-108.432659682248	-0
0.58227984	-47.9569133501228	-108.143085309852	-0
0.58292169	-47.832928875776	-107.850714331739	-0
0.58356354	-47.7063438092838	-107.555507738087	-0
0.58397672	-47.5771196101079	-107.25742472851	-0
0.5846584	-47.4452164276749	-106.956422655184	-0
0.58534009	-47.3105930756547	-106.652456980015	-0
0.58577412	-47.1732070088007	-106.345481242317	-0
0.58645219	-47.0330143029727	-106.035447034414	-0
0.58713026	-46.8899696390702	-105.72230398337	-0
0.58756201	-46.7440262917013	-105.405999737804	-0
0.58825329	-46.5951361235361	-105.086479959406	-0
0.58894457	-46.4432495863744	-104.763688319267	-0
0.58938506	-46.2883157300434	-104.437566499637	-0
0.59009981	-46.1302822203198	-104.108054202003	-0
0.59081457	-45.9690435745264	-103.775089162603	-0
0.59126096	-45.8041046946989	-103.438607176566	-0
0.59198963	-45.6341379125775	-103.0985421318	-0
0.59271829	-45.4566897488964	-102.754826053573	-0
0.59317093	-45.2684392304691	-102.407389160391	-0
0.59392366	-45.0664012264592	-102.056159931337	-0
0.59467639	-44.8496642558997	-101.701065184456	-0
0.59513603	-44.6202069565548	-101.342030165103	-0
0.59591872	-44.3818638874684	-100.978978642388	-0
0.59670141	-44.1384201014143	-100.611833011044	-0
0.59716789	-43.8923986585345	-100.2405143952	-0
0.59800001	-43.6449392342789	-99.8649427496369	-0
0.59883213	-43.3962322818688	-99.4850369533161	-0
0.59930598	-43.1459834447985	-99.1007148891973	-0
0.60039463	-42.8937256462123	-98.7118935036823	-0
0.60129783	-42.6389833838875	-98.3184888384863	-0
0.60220104	-42.3813426594953	-97.9204160273227	-0
0.60270131	-42.1204720595595	-97.5175892495289	-0
0.603488	-41.8561224918525	-97.1099216326287	-0
0.60427468	-41.5881196238934	-96.6973250958476	-0
0.60468923	-41.3163553534574	-96.279710126663	-0
0.6058595	-41.0407807613837	-95.8569854826253	-0
0.60617425	-40.7614012295984	-95.4290578107405	-0
0.60755997	-40.4782737062268	-94.9958311766687	-0
0.60769854	-40.1915057991746	-94.5572064956533	-0
0.60795902	-39.9012562398929	-94.1130808563421	-0
0.60887397	-39.6077361774291	-93.663346727291	-0
0.60942489	-39.3112106619931	-93.2078910337402	-0
0.61027787	-39.0119995223119	-92.7465918431931	-0
0.61132981	-38.7104766205284	-92.2792721652597	-0
0.61187601	-38.407066187567	-91.8054393384515	-0
0.61259987	-38.1022346284711	-91.3236047111814	-0
0.61420297	-37.7964759035618	-90.8300284399481	-0
0.6144425	-37.4902884485517	-90.3169720513243	-0
0.61521606	-37.1841417665179	-89.7713348986268	-0
0.61621915	-36.8784315329653	-89.1760638072693	-0
0.61686209	-36.5734235429899	-88.517253499574	-0
0.61767772	-36.2691892555449	-87.7951187604627	-0
0.61845077	-35.9655389720525	-87.0285137046012	-0
0.61924795	-35.6619623135801	-86.2454629340804	-0
0.62005883	-35.3575885768217	-85.4685223618583	-0
0.62085557	-35.0511802730401	-84.7081755304928	-0
0.62200066	-34.7411702709753	-83.9652217032326	-0
0.62271882	-34.4257459378955	-83.2357566833765	-0
0.62359805	-34.1029736050794	-82.5147208717241	-0
0.62403766	-33.7709464299597	-81.7975361881053	-0
0.62576891	-33.4279319549464	-81.0805798357526	-0
0.62645613	-33.0724951412057	-80.3611575919036	-0
0.62727183	-32.7035787518756	-79.6373268326822	-0
0.62808753	-32.3205333786386	-78.9077113335994	-0
0.62878501	-31.92310038495	-78.1713512583878	-0
0.63050778	-31.5113591897784	-77.4275935399535	-0
0.63115252	-31.0856539633818	-76.6760160990509	-0
0.63228959	-30.6465142093271	-75.9163774824092	-0
0.63325228	-30.1945803571434	-75.1485846563492	-0
0.63431252	-29.7305411518874	-74.3726733288205	-0
0.63533254	-29.2550856484105	-73.5887964846839	-0
0.63638933	-28.7688696925461	-72.7972176190044	-0
0.6374881	-28.2724950330504	-71.998305446454	-0
0.63852624	-27.7664984610394	-71.1925267055229	-0
0.63977087	-27.2513483038708	-70.3804331431111	-0
0.64074118	-26.7259501218785	-69.532653452782	-0
0.64263242	-26.1929531845012	-68.6817685570561	-0
0.64379365	-25.6524280312484	-67.8258043685455	-0
0.64477809	-25.1044317816441	-66.9624537815981	-0
0.64739892	-24.5490115637939	-66.0895995683703	-0
0.6477954	-23.9862052399585	-65.2055196307319	-0
0.64955402	-23.4160423924831	-64.3089150156307	-0
0.65086707	-22.8385456838848	-63.3988602651507	-0
0.65351852	-22.2537322688883	-62.4747304966211	-0
0.65371577	-21.6616150475615	-61.53613008031	-0
0.65391301	-21.0622036869831	-60.5828320611979	-0
0.65411025	-20.4555054161884	-59.6147301516725	-0
0.65468941	-19.8415256292781	-58.6318021683343	-0
0.656441	-19.2202683372789	-57.6340828820669	-0
0.65857122	-18.5917364892745	-56.6216442174273	-0
0.66035139	-17.955932166422	-55.5945810190347	-0
0.66406434	-17.3128567643144	-54.5530009556072	-0
0.66439066	-16.6625111402726	-53.4970174600576	-0
0.66448543	-16.004895730324	-52.4267448763478	-0
0.66460655	-15.3400106454379	-51.3422951979686	-0
0.66521213	-14.6678557518231	-50.2437759460162	-0
0.66803858	-13.9884307391829	-49.1312888571054	-0
